<svg width="66" height="50" viewBox="0 0 66 50" fill="none" xmlns="http://www.w3.org/2000/svg">
<path fill-rule="evenodd" clip-rule="evenodd" d="M12.0471 42.4206C11.8061 41.2546 10.8543 40.9541 9.79395 40.8579C6.34799 40.5334 5.7335 43.1057 5.7335 44.1996C5.7335 46.0507 6.2757 47.5893 9.66142 47.5893C10.288 47.5893 12.0109 46.9522 12.0109 45.9065H16.8787C16.6859 48.9957 11.4687 49.7289 9.20356 49.7289C4.49247 49.7289 0.468168 48.8514 0.660949 44.2356C0.805535 40.9421 3.93823 38.6221 10.1554 38.7664C13.6255 38.8505 16.951 39.9324 16.963 42.4326H12.0471V42.4206Z" fill="black"/>
<path fill-rule="evenodd" clip-rule="evenodd" d="M60.8147 42.4203C60.5737 41.2543 59.6218 40.9538 58.5495 40.8577C55.1035 40.5331 54.489 43.1055 54.489 44.1993C54.489 46.0505 55.0312 47.5891 58.4169 47.5891C59.0435 47.5891 60.7665 46.952 60.7665 45.9062H65.6342C65.4414 48.9954 60.2243 49.7287 57.9591 49.7287C53.2601 49.7287 49.2357 48.8632 49.4285 44.2354C49.5731 40.9418 52.6938 38.6219 58.9109 38.7661C62.369 38.8503 65.7065 39.9321 65.7185 42.4323H60.8147V42.4203Z" fill="black"/>
<path fill-rule="evenodd" clip-rule="evenodd" d="M17.8301 38.9888H24.1557L29.5415 46.5255H29.5897V38.9888H33.6381V49.4585H27.5776L21.9267 41.9217H21.8785V49.4585H17.8301V38.9888Z" fill="black"/>
<path d="M62.472 26.9564C61.6045 24.2278 58.7851 22.016 55.9175 21.8718L55.8211 21.7756C56.7971 20.8981 57.5561 19.8644 58.0019 18.7225C58.8935 16.4506 58.508 13.5297 57.026 11.6425C55.05 9.01004 51.7968 8.07245 48.7123 8.93791C48.1942 9.11822 47.7122 9.43075 47.2182 9.51489C47.7002 6.76224 46.6881 4.31009 44.7 2.50704C42.6517 0.703992 39.2781 0.211159 36.7599 1.35309C35.302 1.94209 33.9404 3.33644 33.1211 4.6707C32.5187 3.70907 31.6873 2.65128 30.6752 2.03825C28.4341 0.391464 24.7833 0.355403 22.4941 1.90602C19.9277 3.60089 18.5541 6.38961 19.0963 9.47883L19.0361 9.55095C17.2408 8.49316 14.578 8.36094 12.614 9.14226C10.385 9.9356 8.4572 12.2315 8.03549 14.5033C7.45714 17.3041 8.44515 19.9125 10.5175 21.8237C8.68612 22.1122 7.01134 22.6892 5.66187 24.0955C3.51718 26.127 2.96294 29.5408 4.09552 32.2213C5.55343 35.3345 8.26441 36.8852 11.7706 36.801H54.4596C56.8091 36.8491 58.9297 36.2842 60.5683 34.6614C62.5925 32.642 63.4119 29.709 62.472 26.9564Z" fill="#F8F8F8"/>
<path d="M45.4835 43.977V43.941C47.5077 43.6044 48.4234 42.4745 48.4234 41.5609C48.4234 40.0103 46.2546 38.9766 42.5677 38.9766H34.8926V49.4463H42.5918C46.7245 49.4463 48.8331 48.4125 48.8331 46.5734C48.8331 45.6599 47.9294 44.1213 45.4835 43.977ZM39.3265 40.9239H40.9772C42.7364 40.9239 43.6039 41.2123 43.6039 42.0778C43.6039 42.8952 42.5677 43.0394 40.6037 43.0394H39.3386V40.9239H39.3265ZM40.6037 47.2586H39.3386V45.0348H40.9893C42.7484 45.0348 43.8448 45.3233 43.8448 46.1888C43.8328 47.0182 42.9653 47.2586 40.6037 47.2586Z" fill="black"/>
<path fill-rule="evenodd" clip-rule="evenodd" d="M45.2048 5.82481C44.8674 5.00743 44.277 4.28621 43.5661 3.64913C41.8311 2.17063 39.0117 1.8581 37.0116 3.01205C35.0958 4.03378 33.9632 5.95703 33.9512 8.06059L34.0235 8.13271L36.5296 8.15675C36.6983 8.26493 36.9513 8.25291 37.0116 8.49332C35.9995 9.27464 34.2644 9.9598 34.4693 11.5825L37.1562 28.4471L37.2164 28.3749L44.6264 11.7388C45.5783 10.092 46.1205 7.66392 45.2048 5.82481Z" fill="#645FA9"/>
<path fill-rule="evenodd" clip-rule="evenodd" d="M29.2883 28.3506L32.3005 9.03391C32.5174 7.62753 32.168 6.36539 31.5656 5.2475C30.9149 4.16568 29.8546 3.28819 28.7461 2.8194C26.6617 1.94191 24.0351 2.37465 22.4326 3.99739C20.8421 5.54801 20.1915 7.81985 20.8903 9.99553L28.469 26.8601L29.2401 28.4107C29.2763 28.3987 29.2883 28.3746 29.2883 28.3506Z" fill="#C8234A"/>
<path fill-rule="evenodd" clip-rule="evenodd" d="M56.1585 13.3734C57.1827 15.1043 56.9537 17.7247 55.8211 19.3355C55.1223 20.4654 53.9656 21.0303 52.9776 21.7756L37.2901 32.5218H37.2539L37.4346 32.0049L45.7483 13.2772C46.9894 11.0655 49.375 9.9476 51.8812 10.2962C53.6042 10.6087 55.3271 11.7266 56.1585 13.3734Z" fill="#0088CF"/>
<path fill-rule="evenodd" clip-rule="evenodd" d="M11.6011 20.5255L29.0477 32.5218H29.1803L20.5292 13.2773C19.0713 10.6929 15.9748 9.62309 13.2276 10.6328C11.5529 11.2579 10.1431 12.8445 9.69734 14.5394C9.0949 16.7872 9.82988 19.023 11.6011 20.5255Z" fill="#F26F21"/>
<path fill-rule="evenodd" clip-rule="evenodd" d="M60.001 32.8584C61.2421 31.2957 61.5915 28.7835 60.7119 26.9564C60.1456 25.7063 58.9407 24.4441 57.6515 23.9393C55.9888 23.1459 53.6754 23.3263 52.1572 24.2999L36.5781 35.1182L55.1815 35.1062C57.1093 35.1663 58.76 34.3489 60.001 32.8584Z" fill="#0DB04B"/>
<path fill-rule="evenodd" clip-rule="evenodd" d="M29.7716 35.1303L14.1925 24.312C12.6623 23.3383 10.361 23.158 8.69825 23.9514C7.40903 24.4442 6.20415 25.7063 5.63785 26.9565C4.77034 28.7835 5.1077 31.2958 6.34873 32.8584C7.57771 34.349 9.2284 35.1663 11.1683 35.1183L29.7716 35.1303Z" fill="#FCB813"/>
</svg>
