<svg width="90" height="43" viewBox="0 0 90 43" fill="none" xmlns="http://www.w3.org/2000/svg">
<path d="M28.4163 12.3552H21.4763C19.1098 12.3552 16.8402 13.2952 15.1668 14.9686C13.4935 16.642 12.5534 18.9115 12.5534 21.278C12.5534 23.6445 13.4935 25.9141 15.1668 27.5874C16.8402 29.2608 19.1098 30.2009 21.4763 30.2009H29.2391C29.5468 30.2009 29.8418 30.0787 30.0594 29.8611C30.2769 29.6436 30.3991 29.3485 30.3991 29.0409V8.55798C30.4012 6.77324 30.9927 5.03916 32.0817 3.62516C33.1707 2.21116 34.6963 1.19642 36.4213 0.738602C38.1463 0.280781 39.9742 0.405511 41.6211 1.09341C43.2679 1.78132 44.6415 2.99388 45.5283 4.54269L54.1934 19.7016V8.55798C54.1955 6.77324 54.787 5.03916 55.876 3.62516C56.965 2.21116 58.4905 1.19642 60.2156 0.738602C61.9406 0.280781 63.7685 0.405511 65.4154 1.09341C67.0622 1.78132 68.4358 2.99388 69.3226 4.54269L77.9877 19.7016V0.458008H82.9448L83.9363 1.44944L84.9277 0.458008H89.8848V33.998C89.8827 35.7828 89.2912 37.5169 88.2022 38.9309C87.1132 40.3449 85.5877 41.3596 83.8627 41.8174C82.1376 42.2752 80.3097 42.1505 78.6628 41.4626C77.016 40.7747 75.6425 39.5621 74.7556 38.0133L66.0905 22.8544V33.998C66.0884 35.7828 65.4969 37.5169 64.4079 38.9309C63.3189 40.3449 61.7934 41.3596 60.0684 41.8174C58.3433 42.2752 56.5154 42.1505 54.8686 41.4626C53.2217 40.7747 51.8482 39.5621 50.9613 38.0133L42.2963 22.8544V33.998C42.2963 36.1463 41.4429 38.2065 39.9238 39.7256C38.4048 41.2446 36.3445 42.098 34.1963 42.098H21.4763C15.9544 42.098 10.6588 39.9045 6.75429 36C2.84978 32.0955 0.65625 26.7998 0.65625 21.278C0.65625 15.7562 2.84978 10.4606 6.75429 6.55605C10.6588 2.65154 15.9544 0.458008 21.4763 0.458008H28.4163V5.41515L27.4248 6.40658L28.4163 7.39801V12.3552Z" fill="#CC0000"/>
<path d="M28.4169 6.40658H21.4769C17.5327 6.40658 13.7501 7.97339 10.9612 10.7623C8.17228 13.5513 6.60547 17.3339 6.60547 21.278C6.60547 25.2222 8.17228 29.0048 10.9612 31.7937C13.7501 34.5826 17.5327 36.1494 21.4769 36.1494H34.1969C34.4795 36.1494 34.7592 36.0938 35.0202 35.9857C35.2812 35.8776 35.5184 35.7191 35.7182 35.5193C35.918 35.3195 36.0764 35.0824 36.1846 34.8213C36.2927 34.5603 36.3483 34.2806 36.3483 33.998V8.55798C36.3491 8.08458 36.5061 7.62466 36.7948 7.24951C37.0836 6.87435 37.488 6.60491 37.9454 6.48293C38.4028 6.36095 38.8877 6.39325 39.3249 6.57482C39.7621 6.75639 40.1272 7.0771 40.3636 7.48724L56.1273 35.0688C56.3638 35.4789 56.7289 35.7996 57.1661 35.9812C57.6033 36.1628 58.0881 36.1951 58.5455 36.0731C59.003 35.9511 59.4074 35.6817 59.6961 35.3065C59.9849 34.9314 60.1418 34.4714 60.1426 33.998V8.55798C60.1434 8.08458 60.3004 7.62466 60.5891 7.24951C60.8778 6.87435 61.2823 6.60491 61.7397 6.48293C62.1971 6.36095 62.682 6.39325 63.1192 6.57482C63.5564 6.75639 63.9215 7.0771 64.1579 7.48724L79.9216 35.0688C80.158 35.4789 80.5231 35.7996 80.9603 35.9812C81.3975 36.1628 81.8824 36.1951 82.3398 36.0731C82.7973 35.9511 83.2017 35.6817 83.4904 35.3065C83.7791 34.9314 83.9361 34.4714 83.9369 33.998V0.458008" stroke="white" stroke-width="4"/>
</svg>
