<svg width="118" height="19" viewBox="0 0 118 19" fill="none" xmlns="http://www.w3.org/2000/svg">
<path d="M17.7059 9.32445C17.7059 14.1754 13.781 18.1079 8.93837 18.1079C4.09676 18.1079 0.171875 14.1754 0.171875 9.32445C0.171875 4.47349 4.09676 0.541016 8.93837 0.541016C13.781 0.541016 17.7059 4.47349 17.7059 9.32445Z" fill="#00ABE6"/>
<path d="M25.8988 13.0941C24.5188 13.0941 23.7487 12.2481 23.7487 10.7558V3.18066H20.3281V10.7362C20.3281 14.0537 22.3492 15.9495 25.8988 15.9495C29.4484 15.9495 31.4695 14.0537 31.4695 10.7362V3.18066H28.0489V10.7558C28.0489 12.2481 27.2788 13.0941 25.8988 13.0941Z" fill="#33261C"/>
<path d="M37.5061 15.9496C40.5045 15.9496 42.4708 14.3476 42.4708 11.9701C42.4708 10.2742 41.4583 8.96595 38.7727 8.22959L37.8344 7.97108C36.4936 7.60289 35.9971 7.19946 35.9971 6.60802C35.9971 5.98133 36.5483 5.63274 37.5217 5.63274C38.7023 5.63274 39.9689 6.29468 40.8524 7.05063L42.5607 4.89638C41.2199 3.67825 39.4177 2.94189 37.5061 2.94189C34.6171 2.94189 32.5961 4.50862 32.5961 6.92138C32.5961 8.78186 33.8079 9.99998 36.0518 10.5875L36.8259 10.7912C38.499 11.2338 39.0698 11.5667 39.0698 12.2286C39.0698 12.9102 38.4795 13.2588 37.4865 13.2588C36.0166 13.2588 34.8009 12.7261 33.8079 11.8409L32.1543 13.9246C33.5343 15.2132 35.4654 15.9496 37.5061 15.9496Z" fill="#33261C"/>
<path d="M52.234 15.7105H55.7132L51.1316 3.18066H47.1598L42.582 15.7105H45.9635L46.7571 13.3722H51.4443L52.234 15.7105ZM47.6211 10.8263L49.1105 6.44336L50.5804 10.8263H47.6211Z" fill="#33261C"/>
<path d="M62.3114 15.7105H65.732V5.94593H69.4497V3.18066H58.5977V5.94593H62.3114V15.7105Z" fill="#33261C"/>
<path d="M75.8566 15.9496C79.6055 15.9496 82.3459 13.2784 82.3459 9.46337C82.3459 5.65233 79.6055 2.94189 75.8566 2.94189C72.1037 2.94189 69.3633 5.65233 69.3633 9.46337C69.3633 13.2784 72.1037 15.9496 75.8566 15.9496ZM75.8566 13.1138C74.0739 13.1138 72.8386 11.6372 72.8386 9.46337C72.8386 7.28955 74.0739 5.78158 75.8566 5.78158C77.6392 5.78158 78.8706 7.28955 78.8706 9.46337C78.8706 11.6372 77.6392 13.1138 75.8566 13.1138Z" fill="#33261C"/>
<path d="M83.5293 15.7105H88.455C92.1531 15.7105 94.784 13.1294 94.784 9.44755C94.784 5.76184 92.1531 3.18066 88.455 3.18066H83.5293V15.7105ZM86.8952 13.004V5.89109H88.455C90.2571 5.89109 91.3634 7.30898 91.3634 9.44755C91.3634 11.5822 90.2571 13.004 88.455 13.004H86.8952Z" fill="#33261C"/>
<path d="M103.804 15.7105H107.284L102.702 3.18066H98.7301L94.1523 15.7105H97.5338L98.3274 13.3722H103.015L103.804 15.7105ZM99.1914 10.8263L100.681 6.44336L102.151 10.8263H99.1914Z" fill="#33261C"/>
<path d="M112.856 11.1984L117.285 3.18066H113.426L111.128 8.155L108.81 3.18066H104.947L109.38 11.1984V15.7105H112.856V11.1984Z" fill="#33261C"/>
</svg>
