<?xml version="1.0" encoding="UTF-8"?>
<svg width="100" height="30" viewBox="0 0 100 30" xmlns="http://www.w3.org/2000/svg">
  <path d="M35.132 26.652c-3.234 2.384-7.927 3.652-11.957 3.652-5.659 0-10.756-2.089-14.613-5.571-.303-.275-.032-.651.331-.437 4.162 2.421 9.293 3.878 14.596 3.878 3.577 0 7.504-.741 11.117-2.276.544-.231 1.001.358.526.754" fill="#FF9900"/>
  <path d="M36.566 24.95c-.413-.529-2.733-.251-3.772-.126-.315.038-.364-.237-.08-.436 1.849-1.298 4.881-.924 5.236-.489.356.436-.093 3.467-1.821 4.916-.266.223-.519.104-.401-.189.389-.971 1.258-3.146.838-3.676" fill="#FF9900"/>
  <path d="M32.837 7.876v-2.06c0-.312.237-.519.519-.519h9.2c.294 0 .531.207.531.519v1.763c-.003.294-.251.678-.689 1.286l-4.764 6.808c1.77-.042 3.642.221 5.248 1.124.361.203.458.502.486.796v2.192c0 .298-.328.644-.673.464-2.811-1.473-6.543-1.634-9.648.015-.316.169-.648-.171-.648-.469v-2.082c0-.331.006-.896.335-1.396l5.52-7.918H33.36c-.294 0-.531-.207-.531-.519l.008-.004zM11.46 18.318h-2.801c-.266-.018-.478-.22-.501-.476V3.139c0-.288.241-.519.541-.519h2.611c.273.015.493.222.512.483v1.926h.051c.681-1.815 1.962-2.657 3.693-2.657 1.756 0 2.852.842 3.639 2.657.68-1.815 2.227-2.657 3.881-2.657 1.178 0 2.465.486 3.251 1.578.891 1.213.708 2.97.708 4.515l-.003 10.303c0 .288-.241.519-.541.519H23.7c-.282-.018-.505-.245-.505-.519V9.35c0-.74.067-2.587-.096-3.29-.257-1.177-1.027-1.507-2.023-1.507-.833 0-1.705.557-2.059 1.449-.354.892-.321 2.379-.321 3.348v8.45c0 .288-.241.519-.541.519h-2.701c-.283-.018-.506-.245-.506-.519l-.003-8.45c0-1.957.321-4.837-2.105-4.837-2.456 0-2.361 2.806-2.361 4.837v8.45c-.003.285-.244.516-.544.516l.003.003zm53.652.018c-.27 0-.486-.219-.486-.489v-2.055c0-.27.219-.489.489-.489h1.762c.27 0 .489.219.489.489v2.055c0 .27-.219.489-.489.489h-1.762l-.003.001zM65.11 8.883c-1.994 0-2.12 2.719-2.12 4.414 0 1.695-.026 5.332 2.094 5.332 2.094 0 2.196-2.921 2.196-4.704 0-1.169-.051-2.569-.403-3.676-.299-.968-.897-1.366-1.767-1.366zm-.026-3.435c4.075 0 6.284 3.498 6.284 7.947 0 4.301-2.437 7.711-6.284 7.711-4.003 0-6.182-3.498-6.182-7.861 0-4.389 2.206-7.798 6.182-7.798v.001zm11.501 12.87h-2.694c-.282-.018-.506-.245-.506-.519l-.003-14.703c.024-.263.251-.468.534-.468h2.509c.243.013.444.176.497.397v2.245h.051c.757-1.9 1.82-2.806 3.687-2.806 1.215 0 2.402.438 3.164 1.64.708 1.11.708 2.97.708 4.309v8.718c-.031.251-.257.448-.528.448h-2.714c-.253-.018-.46-.182-.493-.448V9.26c0-1.931.225-4.749-2.152-4.749-.835 0-1.603.557-1.987 1.405-.483 1.075-.547 2.148-.547 3.344v8.54c-.006.282-.244.516-.544.516l.018.003zM50.007 8.871c-2.001 0-2.127 2.719-2.127 4.414 0 1.695-.025 5.332 2.102 5.332 2.094 0 2.196-2.921 2.196-4.704 0-1.169-.051-2.569-.404-3.676-.299-.968-.896-1.366-1.767-1.366zm-.026-3.435c4.076 0 6.285 3.498 6.285 7.947 0 4.301-2.438 7.711-6.285 7.711-3.996 0-6.182-3.498-6.182-7.861 0-4.389 2.207-7.798 6.182-7.798v.001z" fill="currentColor"/>
</svg>